<?xml version="1.0" standalone="no"?>
<!DOCTYPE svg PUBLIC "-//W3C//DTD SVG 20010904//EN"
 "http://www.w3.org/TR/2001/REC-SVG-20010904/DTD/svg10.dtd">
<svg version="1.0" xmlns="http://www.w3.org/2000/svg"
 width="311.000000pt" height="311.000000pt" viewBox="0 0 311.000000 311.000000"
 preserveAspectRatio="xMidYMid meet">
<metadata>
Created by potrace 1.14, written by Peter Selinger 2001-2017
</metadata>
<g transform="translate(0.000000,311.000000) scale(0.100000,-0.100000)"
fill="#000000" stroke="none">
<path d="M2210 3003 c-128 -47 -409 -233 -575 -382 -74 -67 -241 -236 -286
-291 -154 -185 -256 -399 -290 -609 -10 -63 -13 -233 -6 -281 8 -47 21 -125
22 -130 1 -3 5 -18 9 -35 79 -302 171 -465 375 -667 53 -52 134 -126 181 -164
47 -38 87 -72 88 -76 2 -5 9 -8 16 -8 8 0 21 39 35 103 12 56 24 109 26 117 2
8 8 38 15 65 6 28 17 77 25 110 8 33 46 199 85 370 40 171 73 317 75 325 2 8
11 47 20 85 9 39 19 81 22 95 2 14 16 72 30 130 14 58 27 113 29 123 2 10 5
26 8 35 3 9 8 35 12 57 3 22 8 42 11 45 5 5 1 -166 -22 -950 -2 -85 -7 -263
-10 -395 -4 -132 -8 -266 -10 -297 -1 -32 0 -58 3 -58 12 0 473 257 482 269 3
4 48 42 100 86 104 87 109 93 192 209 61 86 140 250 164 343 8 32 26 100 40
151 27 103 34 244 20 426 -7 95 -37 195 -102 346 -43 99 -225 354 -362 507
-16 17 -60 66 -98 108 -38 43 -71 81 -74 85 -7 11 -222 160 -229 159 -3 0 -13
-3 -21 -6z"/>
<path d="M65 1301 c-50 -98 -79 -367 -54 -515 32 -190 152 -358 349 -487 175
-114 321 -164 545 -184 39 -4 80 -8 93 -10 27 -4 28 5 3 36 -36 47 -530 749
-526 749 4 0 194 -158 245 -203 14 -13 52 -45 85 -72 33 -28 65 -54 71 -60 6
-5 33 -28 59 -50 27 -22 53 -44 59 -50 6 -5 38 -32 71 -60 33 -27 71 -60 85
-73 54 -51 53 -52 91 96 34 131 35 140 23 198 -23 116 -128 289 -231 384 -96
88 -109 98 -196 145 -99 53 -188 85 -352 125 -66 16 -140 34 -165 41 -25 6
-88 13 -142 16 l-96 6 -17 -32z"/>
</g>
</svg>
